<svg width="534" height="534" viewBox="0 0 534 534" fill="none" xmlns="http://www.w3.org/2000/svg">
<path d="M171.738 77.3343L112.65 18.2434L112.421 18.0147L112.116 17.7097C111.811 17.4047 111.43 17.0997 111.125 16.7947L110.973 16.6422C110.547 16.287 110.186 15.998 109.708 15.7135C109.637 15.6714 109.571 15.6215 109.513 15.5634V15.5634C109.47 15.5202 109.422 15.4815 109.372 15.4477C108.939 15.1597 108.503 14.8716 107.999 14.5836L106.398 13.6686C105.342 13.1402 104.21 12.6866 103.004 12.2337C102.98 12.2246 102.954 12.2199 102.928 12.2199V12.2199C102.904 12.2199 102.879 12.2157 102.856 12.2075C101.799 11.8337 100.668 11.6075 99.5364 11.3812L99.2315 11.305L97.6681 11.0816C97.643 11.078 97.6176 11.0762 97.5922 11.0762V11.0762C97.5669 11.0762 97.5415 11.0744 97.5163 11.071C96.9987 11 96.5503 11 96.0293 11H93.8182C93.3876 11 93.0067 11.0496 92.5953 11.1089C92.3943 11.1378 92.1915 11.1525 91.9884 11.1525V11.1525C90.8719 11.3014 89.828 11.5229 88.7858 11.8172C88.7355 11.8314 88.6835 11.8387 88.6312 11.8387V11.8387C88.5823 11.8387 88.5335 11.8451 88.4863 11.8578C87.382 12.1562 86.3477 12.5261 85.3142 12.9674C85.291 12.9773 85.2661 12.9824 85.241 12.9824V12.9824C85.2158 12.9824 85.191 12.9875 85.1679 12.9974C84.1121 13.4516 83.0572 13.9811 82.0769 14.6598L81.8482 14.8123C80.8571 15.4223 79.9421 16.1085 79.0272 16.871L78.7985 17.0997C78.3411 17.4809 77.9598 17.8622 77.5786 18.2434L18.2621 77.4868C8.57931 87.1701 8.57931 102.953 18.2621 112.636C27.9449 122.32 43.727 122.32 53.4098 112.636L70.2594 95.7859L70.1828 471.43C70.1828 485.155 81.3142 496.286 95.0378 496.286C108.761 496.286 119.893 485.155 119.893 471.43L119.969 95.8622L136.59 112.484C146.273 122.167 162.055 122.167 171.738 112.484C181.421 102.801 181.421 87.0176 171.738 77.3343Z" fill="black"/>
<path d="M291.804 301.4H468.104C485.704 301.7 499.804 315.9 500.104 333.4C500.404 351.4 486.104 366.3 468.104 366.6H291.804C274.304 366.3 260.104 352.2 259.804 334.6C259.504 316.6 273.804 301.7 291.804 301.4Z" fill="black"/>
<path d="M357.405 167.2H468.105C476.553 167.327 484.619 170.739 490.593 176.713C496.567 182.687 499.979 190.753 500.105 199.2C500.405 217.2 486.105 232.1 468.105 232.4H357.405C339.905 232.1 325.705 218 325.405 200.4C325.105 182.4 339.405 167.5 357.405 167.2Z" fill="black"/>
<path d="M468.105 98.2H420.905C402.905 98.2 388.305 83.6 388.305 65.6C388.305 47.6 402.905 33 420.905 33H468.105C486.105 33 500.705 47.6 500.705 65.6C500.705 83.6 486.105 98.2 468.105 98.2Z" fill="black"/>
<path d="M179.005 468.9C178.705 450.9 193.005 436 211.005 435.7H468.105C485.705 436 499.805 450.1 500.205 467.7C500.505 485.7 486.205 500.6 468.205 500.9H211.005C193.505 500.6 179.305 486.5 179.005 468.9Z" fill="black"/>
</svg>
