<svg width="534" height="534" viewBox="0 0 534 534" fill="none" xmlns="http://www.w3.org/2000/svg">
<path d="M18.2621 429.952L77.3499 489.043L77.5786 489.271L77.8836 489.576C78.1886 489.881 78.5698 490.186 78.8747 490.491L79.0272 490.644C79.4535 490.999 79.8135 491.288 80.2924 491.573C80.3632 491.615 80.4291 491.665 80.4873 491.723V491.723C80.5304 491.766 80.5776 491.805 80.6283 491.838C81.0606 492.126 81.4966 492.415 82.0007 492.703L83.6018 493.618C84.6585 494.146 85.7899 494.6 86.9961 495.052C87.0203 495.062 87.0459 495.066 87.0717 495.066V495.066C87.0963 495.066 87.1208 495.07 87.144 495.079C88.2013 495.452 89.3325 495.679 90.4636 495.905L90.7685 495.981L92.3319 496.204C92.357 496.208 92.3824 496.21 92.4078 496.21V496.21C92.4331 496.21 92.4585 496.212 92.4837 496.215C93.0013 496.286 93.4497 496.286 93.9707 496.286H96.1818C96.6124 496.286 96.9933 496.236 97.4047 496.177C97.6057 496.148 97.8085 496.134 98.0116 496.134V496.134C99.1281 495.985 100.172 495.763 101.214 495.469C101.264 495.455 101.316 495.447 101.369 495.447V495.447C101.418 495.447 101.466 495.441 101.514 495.428C102.618 495.13 103.652 494.76 104.686 494.319C104.709 494.309 104.734 494.304 104.759 494.304V494.304C104.784 494.304 104.809 494.299 104.832 494.289C105.888 493.835 106.943 493.305 107.923 492.626L108.152 492.474C109.143 491.864 110.058 491.178 110.973 490.415L111.201 490.186C111.659 489.805 112.04 489.424 112.421 489.043L171.738 429.799C181.421 420.116 181.421 404.333 171.738 394.65C162.055 384.966 146.273 384.966 136.59 394.65L119.741 411.5L119.817 35.8559C119.817 22.1315 108.686 10.9998 94.9622 10.9998C81.2386 10.9998 70.1072 22.1315 70.1072 35.8559L70.0306 411.424L53.4098 394.802C43.727 385.119 27.9448 385.119 18.2621 394.802C8.57929 404.486 8.57929 420.269 18.2621 429.952Z" fill="black"/>
<path d="M414.121 232.3L237.821 232.3C220.221 232 206.121 217.8 205.821 200.3C205.521 182.3 219.821 167.4 237.821 167.1L414.121 167.1C431.621 167.4 445.821 181.5 446.121 199.1C446.421 217.1 432.121 232 414.121 232.3Z" fill="black"/>
<path d="M348.521 366.5H237.821C229.373 366.374 221.307 362.962 215.333 356.988C209.359 351.014 205.947 342.948 205.821 334.5C205.521 316.5 219.821 301.6 237.821 301.3H348.521C366.021 301.6 380.221 315.7 380.521 333.3C380.821 351.3 366.521 366.2 348.521 366.5Z" fill="black"/>
<path d="M237.821 435.5H285.021C303.021 435.5 317.621 450.1 317.621 468.1C317.621 486.1 303.021 500.7 285.021 500.7H237.821C219.821 500.7 205.221 486.1 205.221 468.1C205.221 450.1 219.821 435.5 237.821 435.5Z" fill="black"/>
<path d="M526.921 64.8C527.221 82.8 512.921 97.7 494.921 98L237.821 98C220.221 97.7 206.121 83.6 205.721 66C205.421 48 219.721 33.1 237.721 32.8L494.921 32.8C512.421 33.1 526.621 47.2 526.921 64.8Z" fill="black"/>
</svg>
